<svg width="26" height="23" viewBox="0 0 26 23" fill="none" xmlns="http://www.w3.org/2000/svg">
<path fill-rule="evenodd" clip-rule="evenodd" d="M5.5 8.36639C5.5 7.81411 5.94772 7.36639 6.5 7.36639H19.5C20.0523 7.36639 20.5 7.81411 20.5 8.36639C20.5 8.91868 20.0523 9.36639 19.5 9.36639H6.5C5.94772 9.36639 5.5 8.91868 5.5 8.36639Z" fill="white"/>
<path fill-rule="evenodd" clip-rule="evenodd" d="M5.5 12.3664C5.5 11.8141 5.94772 11.3664 6.5 11.3664H19.5C20.0523 11.3664 20.5 11.8141 20.5 12.3664C20.5 12.9187 20.0523 13.3664 19.5 13.3664H6.5C5.94772 13.3664 5.5 12.9187 5.5 12.3664Z" fill="white"/>
<path fill-rule="evenodd" clip-rule="evenodd" d="M0.585787 0.952181C0.960859 0.577108 1.46957 0.366394 2 0.366394H24C24.5304 0.366394 25.0391 0.577108 25.4142 0.952181C25.7893 1.32725 26 1.83596 26 2.36639V21.3664C26 21.713 25.8205 22.0348 25.5257 22.217C25.2309 22.3993 24.8628 22.4158 24.5528 22.2608L21 20.4844L17.4472 22.2608C17.1657 22.4016 16.8343 22.4016 16.5528 22.2608L13 20.4844L9.44721 22.2608C9.16569 22.4016 8.83431 22.4016 8.55279 22.2608L5 20.4844L1.44721 22.2608C1.13723 22.4158 0.769085 22.3993 0.474269 22.217C0.179452 22.0348 0 21.713 0 21.3664V2.36639C0 1.83596 0.210714 1.32725 0.585787 0.952181ZM24 2.36639L2 2.36639L2 19.7484L4.55279 18.472C4.83431 18.3312 5.16569 18.3312 5.44721 18.472L9 20.2484L12.5528 18.472C12.8343 18.3312 13.1657 18.3312 13.4472 18.472L17 20.2484L20.5528 18.472C20.8343 18.3312 21.1657 18.3312 21.4472 18.472L24 19.7484V2.36639Z" fill="white"/>
</svg>
