<svg width="21" height="21" viewBox="0 0 21 21" fill="none" xmlns="http://www.w3.org/2000/svg">
<path fill-rule="evenodd" clip-rule="evenodd" d="M4.35585 1.98378C5.69012 1.09225 7.2588 0.616394 8.86352 0.616394H8.86357C11.0154 0.616531 13.079 1.47139 14.6006 2.99295C16.1221 4.5145 16.977 6.57814 16.9771 8.72994V8.72999C16.9771 10.3347 16.5013 11.9034 15.6097 13.2377C15.4533 13.4718 15.2852 13.6969 15.1065 13.9123L20.0303 18.8361C20.3231 19.129 20.3231 19.6038 20.0303 19.8967C19.7374 20.1896 19.2625 20.1896 18.9696 19.8967L14.0458 14.9729C13.4234 15.4896 12.7239 15.9131 11.9685 16.226C10.4859 16.8401 8.85452 17.0007 7.28063 16.6877C5.70675 16.3746 4.26105 15.6019 3.12634 14.4672C1.99163 13.3325 1.21889 11.8868 0.905824 10.3129C0.592759 8.73899 0.753435 7.10762 1.36753 5.62505C1.98163 4.14248 3.02157 2.87531 4.35585 1.98378ZM8.86347 2.11639C7.55544 2.1164 6.27679 2.50428 5.1892 3.23099C4.1016 3.9577 3.25392 4.9906 2.75335 6.19907C2.25279 7.40755 2.12182 8.73732 2.377 10.0202C2.63219 11.3031 3.26207 12.4816 4.187 13.4065C5.11193 14.3314 6.29036 14.9613 7.57327 15.2165C8.85618 15.4717 10.186 15.3407 11.3944 14.8402C12.6029 14.3396 13.6358 13.4919 14.3625 12.4043C15.0892 11.3167 15.4771 10.0381 15.4771 8.73004M8.86352 2.11639C10.6175 2.11652 12.2996 2.81335 13.5399 4.05361C14.7802 5.29387 15.477 6.97599 15.4771 8.72999" fill="#C4C4CC"/>
</svg>
